<mxfile host="app.diagrams.net" modified="2021-10-07T07:15:47.260Z" agent="5.0 (X11)" etag="Kw1tJ1W7_fLjrH3_pScU" version="15.4.3" type="github">
  <diagram id="5OZ0BhGvFI4iCXYPJR3G" name="Page-1">
    <mxGraphModel dx="3452" dy="2161" grid="0" gridSize="10" guides="0" tooltips="1" connect="1" arrows="1" fold="1" page="0" pageScale="1" pageWidth="850" pageHeight="1100" math="0" shadow="0">
      <root>
        <mxCell id="0" />
        <mxCell id="1" parent="0" />
        <mxCell id="uojdir2LQ5QKRmrIcmHO-66" style="edgeStyle=orthogonalEdgeStyle;rounded=0;orthogonalLoop=1;jettySize=auto;html=1;fontSize=36;fontColor=#FF9933;startArrow=none;startFill=0;endArrow=classic;endFill=1;strokeColor=#000000;strokeWidth=3;" edge="1" parent="1" source="uojdir2LQ5QKRmrIcmHO-67">
          <mxGeometry relative="1" as="geometry">
            <mxPoint x="425" y="-850" as="targetPoint" />
          </mxGeometry>
        </mxCell>
        <mxCell id="uojdir2LQ5QKRmrIcmHO-8" value="&lt;b&gt;Internet&lt;/b&gt;" style="aspect=fixed;perimeter=ellipsePerimeter;html=1;align=center;shadow=0;dashed=0;spacingTop=3;image;image=img/lib/active_directory/internet_globe.svg;fontSize=36;fontColor=#004C99;" vertex="1" parent="1">
          <mxGeometry y="-1140" width="180" height="180" as="geometry" />
        </mxCell>
        <mxCell id="uojdir2LQ5QKRmrIcmHO-9" value="" style="rounded=0;whiteSpace=wrap;html=1;fontSize=24;align=center;strokeWidth=3;fillColor=none;strokeColor=#000066;dashed=1;" vertex="1" parent="1">
          <mxGeometry x="-750" y="-940" width="720" height="680" as="geometry" />
        </mxCell>
        <mxCell id="uojdir2LQ5QKRmrIcmHO-1" value="" style="fontColor=#0066CC;verticalAlign=top;verticalLabelPosition=bottom;labelPosition=center;align=center;html=1;outlineConnect=0;fillColor=#CCCCCC;strokeColor=#6881B3;gradientColor=none;gradientDirection=north;strokeWidth=2;shape=mxgraph.networks.security_camera;flipH=1;" vertex="1" parent="1">
          <mxGeometry x="-570" y="-510" width="100" height="75" as="geometry" />
        </mxCell>
        <mxCell id="uojdir2LQ5QKRmrIcmHO-2" value="" style="shape=image;html=1;verticalAlign=top;verticalLabelPosition=bottom;labelBackgroundColor=#ffffff;imageAspect=0;aspect=fixed;image=https://cdn2.iconfinder.com/data/icons/people-80/96/Picture22-128.png" vertex="1" parent="1">
          <mxGeometry x="-710" y="-430" width="128" height="128" as="geometry" />
        </mxCell>
        <mxCell id="uojdir2LQ5QKRmrIcmHO-3" value="&lt;div style=&quot;font-size: 36px&quot; align=&quot;center&quot;&gt;&lt;b&gt;Client Premises&lt;br style=&quot;font-size: 36px&quot;&gt;&lt;/b&gt;&lt;/div&gt;" style="text;html=1;strokeColor=none;fillColor=none;align=center;verticalAlign=middle;whiteSpace=wrap;rounded=0;fontSize=36;fontColor=#003366;" vertex="1" parent="1">
          <mxGeometry x="-780" y="-920" width="400" height="100" as="geometry" />
        </mxCell>
        <mxCell id="uojdir2LQ5QKRmrIcmHO-4" value="&lt;b&gt;CVR&lt;/b&gt;" style="fontColor=#0066CC;verticalAlign=top;verticalLabelPosition=bottom;labelPosition=center;align=center;html=1;outlineConnect=0;fillColor=#CCCCCC;strokeColor=#6881B3;gradientColor=none;gradientDirection=north;strokeWidth=2;shape=mxgraph.networks.desktop_pc;fontSize=36;" vertex="1" parent="1">
          <mxGeometry x="-160" y="-724.5" width="105" height="109" as="geometry" />
        </mxCell>
        <mxCell id="uojdir2LQ5QKRmrIcmHO-5" value="" style="endArrow=classic;html=1;rounded=0;fontSize=24;edgeStyle=orthogonalEdgeStyle;strokeWidth=3;entryX=0;entryY=0.5;entryDx=0;entryDy=0;startArrow=none;startFill=0;endFill=1;exitX=0.3;exitY=0;exitDx=0;exitDy=0;exitPerimeter=0;" edge="1" parent="1" source="uojdir2LQ5QKRmrIcmHO-55">
          <mxGeometry width="50" height="50" relative="1" as="geometry">
            <mxPoint x="-330" y="-430" as="sourcePoint" />
            <mxPoint x="-500" y="-670" as="targetPoint" />
            <Array as="points">
              <mxPoint x="-500" y="-615" />
            </Array>
          </mxGeometry>
        </mxCell>
        <mxCell id="uojdir2LQ5QKRmrIcmHO-7" value="" style="endArrow=classic;html=1;rounded=0;fontSize=24;strokeWidth=3;edgeStyle=orthogonalEdgeStyle;endFill=1;entryX=0;entryY=0.5;entryDx=0;entryDy=0;" edge="1" parent="1" source="uojdir2LQ5QKRmrIcmHO-59" target="uojdir2LQ5QKRmrIcmHO-8">
          <mxGeometry width="50" height="50" relative="1" as="geometry">
            <mxPoint x="-424.75" y="-930" as="sourcePoint" />
            <mxPoint x="-200" y="-700" as="targetPoint" />
            <Array as="points">
              <mxPoint x="-425" y="-1050" />
            </Array>
          </mxGeometry>
        </mxCell>
        <mxCell id="uojdir2LQ5QKRmrIcmHO-36" value="" style="whiteSpace=wrap;html=1;aspect=fixed;fontSize=24;fontColor=#003366;strokeColor=none;strokeWidth=3;fillColor=default;align=center;" vertex="1" parent="1">
          <mxGeometry x="670.25" y="-651.5" width="29.5" height="29.5" as="geometry" />
        </mxCell>
        <mxCell id="uojdir2LQ5QKRmrIcmHO-46" value="" style="group" vertex="1" connectable="0" parent="1">
          <mxGeometry x="-170" y="-504.24" width="163" height="143.25" as="geometry" />
        </mxCell>
        <mxCell id="uojdir2LQ5QKRmrIcmHO-47" value="" style="group" vertex="1" connectable="0" parent="uojdir2LQ5QKRmrIcmHO-46">
          <mxGeometry x="-40" y="-320" width="163" height="143.25" as="geometry" />
        </mxCell>
        <mxCell id="uojdir2LQ5QKRmrIcmHO-13" value="" style="shape=image;html=1;verticalAlign=top;verticalLabelPosition=bottom;labelBackgroundColor=#ffffff;imageAspect=0;aspect=fixed;image=https://cdn4.iconfinder.com/data/icons/thefreeforty/30/thefreeforty_footage-128.png;fontSize=24;fontColor=#003366;strokeColor=#000066;strokeWidth=3;fillColor=none;" vertex="1" parent="uojdir2LQ5QKRmrIcmHO-47">
          <mxGeometry x="95" y="0.25" width="68" height="68" as="geometry" />
        </mxCell>
        <mxCell id="uojdir2LQ5QKRmrIcmHO-16" value="" style="whiteSpace=wrap;html=1;aspect=fixed;fontSize=24;fontColor=#003366;strokeColor=none;strokeWidth=3;fillColor=default;align=center;" vertex="1" parent="uojdir2LQ5QKRmrIcmHO-47">
          <mxGeometry x="114.25" y="19.25" width="29.5" height="29.5" as="geometry" />
        </mxCell>
        <mxCell id="uojdir2LQ5QKRmrIcmHO-17" value="" style="shape=image;html=1;verticalAlign=top;verticalLabelPosition=bottom;labelBackgroundColor=#ffffff;imageAspect=0;aspect=fixed;image=https://cdn2.iconfinder.com/data/icons/people-80/96/Picture22-128.png" vertex="1" parent="uojdir2LQ5QKRmrIcmHO-47">
          <mxGeometry x="105.75" y="15" width="38" height="38" as="geometry" />
        </mxCell>
        <mxCell id="uojdir2LQ5QKRmrIcmHO-22" value="" style="shape=image;html=1;verticalAlign=top;verticalLabelPosition=bottom;labelBackgroundColor=#ffffff;imageAspect=0;aspect=fixed;image=https://cdn4.iconfinder.com/data/icons/common-toolbar/36/Cut-2-128.png;fontSize=24;fontColor=#003366;strokeColor=#000066;strokeWidth=3;fillColor=default;" vertex="1" parent="uojdir2LQ5QKRmrIcmHO-47">
          <mxGeometry y="15.25" width="128" height="128" as="geometry" />
        </mxCell>
        <mxCell id="uojdir2LQ5QKRmrIcmHO-24" value="" style="group" vertex="1" connectable="0" parent="uojdir2LQ5QKRmrIcmHO-47">
          <mxGeometry width="68" height="68" as="geometry" />
        </mxCell>
        <mxCell id="uojdir2LQ5QKRmrIcmHO-14" value="" style="shape=image;html=1;verticalAlign=top;verticalLabelPosition=bottom;labelBackgroundColor=#ffffff;imageAspect=0;aspect=fixed;image=https://cdn4.iconfinder.com/data/icons/thefreeforty/30/thefreeforty_footage-128.png;fontSize=24;fontColor=#003366;strokeColor=#000066;strokeWidth=3;fillColor=none;" vertex="1" parent="uojdir2LQ5QKRmrIcmHO-24">
          <mxGeometry width="68" height="68" as="geometry" />
        </mxCell>
        <mxCell id="uojdir2LQ5QKRmrIcmHO-15" value="" style="whiteSpace=wrap;html=1;aspect=fixed;fontSize=24;fontColor=#003366;strokeColor=none;strokeWidth=3;fillColor=default;align=center;" vertex="1" parent="uojdir2LQ5QKRmrIcmHO-24">
          <mxGeometry x="19" y="18.75" width="30" height="30" as="geometry" />
        </mxCell>
        <mxCell id="uojdir2LQ5QKRmrIcmHO-50" value="&lt;div&gt;&lt;b&gt;Edge&lt;/b&gt;&lt;/div&gt;&lt;div&gt;&lt;b&gt;Analytics&lt;/b&gt;&lt;/div&gt;" style="verticalAlign=top;verticalLabelPosition=bottom;labelPosition=center;align=center;html=1;outlineConnect=0;fillColor=#FFB366;strokeColor=#FF8000;gradientDirection=north;strokeWidth=2;shape=mxgraph.networks.desktop_pc;fontSize=36;fontColor=#FF8000;" vertex="1" parent="1">
          <mxGeometry x="-190" y="-469.99" width="105" height="109" as="geometry" />
        </mxCell>
        <mxCell id="uojdir2LQ5QKRmrIcmHO-52" value="" style="edgeStyle=orthogonalEdgeStyle;rounded=0;orthogonalLoop=1;jettySize=auto;html=1;fontSize=36;fontColor=#003366;startArrow=none;startFill=0;endArrow=classic;endFill=1;strokeWidth=3;" edge="1" parent="1" source="uojdir2LQ5QKRmrIcmHO-60">
          <mxGeometry relative="1" as="geometry">
            <mxPoint x="-160" y="-670" as="sourcePoint" />
            <mxPoint x="-335" y="-670.42" as="targetPoint" />
            <Array as="points">
              <mxPoint x="-260" y="-670.42" />
              <mxPoint x="-260" y="-670.42" />
            </Array>
          </mxGeometry>
        </mxCell>
        <mxCell id="uojdir2LQ5QKRmrIcmHO-57" value="" style="edgeStyle=orthogonalEdgeStyle;rounded=0;orthogonalLoop=1;jettySize=auto;html=1;fontSize=36;fontColor=#003366;startArrow=none;startFill=0;endArrow=classic;endFill=1;strokeWidth=3;exitX=0.5;exitY=0;exitDx=0;exitDy=0;strokeColor=#FF8000;" edge="1" parent="1" source="uojdir2LQ5QKRmrIcmHO-56" target="uojdir2LQ5QKRmrIcmHO-59">
          <mxGeometry relative="1" as="geometry">
            <mxPoint x="-150" y="-660" as="sourcePoint" />
            <mxPoint x="-417.5" y="-590" as="targetPoint" />
            <Array as="points">
              <mxPoint x="-340" y="-560" />
              <mxPoint x="-434" y="-560" />
            </Array>
          </mxGeometry>
        </mxCell>
        <mxCell id="uojdir2LQ5QKRmrIcmHO-59" value="" style="points=[];aspect=fixed;html=1;align=center;shadow=0;dashed=0;image;image=img/lib/allied_telesis/security/Router_VPN.svg;sketch=0;fontSize=36;fontColor=#FF9933;strokeColor=#EFEFEF;strokeWidth=3;fillColor=#000066;" vertex="1" parent="1">
          <mxGeometry x="-526" y="-760" width="183.18" height="130" as="geometry" />
        </mxCell>
        <mxCell id="uojdir2LQ5QKRmrIcmHO-61" value="&lt;b&gt;4&lt;/b&gt;" style="ellipse;whiteSpace=wrap;html=1;aspect=fixed;fontSize=36;fontColor=#004C99;strokeColor=#000066;strokeWidth=3;fillColor=default;align=center;" vertex="1" parent="1">
          <mxGeometry x="-260" y="-1080" width="60" height="60" as="geometry" />
        </mxCell>
        <mxCell id="uojdir2LQ5QKRmrIcmHO-60" value="&lt;b&gt;3&lt;/b&gt;" style="ellipse;whiteSpace=wrap;html=1;aspect=fixed;fontSize=36;fontColor=#004C99;strokeColor=#000066;strokeWidth=3;fillColor=default;align=center;" vertex="1" parent="1">
          <mxGeometry x="-280" y="-700" width="60" height="60" as="geometry" />
        </mxCell>
        <mxCell id="uojdir2LQ5QKRmrIcmHO-62" value="" style="edgeStyle=orthogonalEdgeStyle;rounded=0;orthogonalLoop=1;jettySize=auto;html=1;fontSize=36;fontColor=#003366;startArrow=classicThin;startFill=0;endArrow=none;endFill=1;strokeWidth=3;" edge="1" parent="1" target="uojdir2LQ5QKRmrIcmHO-60">
          <mxGeometry relative="1" as="geometry">
            <mxPoint x="-160" y="-670" as="sourcePoint" />
            <mxPoint x="-335" y="-670.4200000000001" as="targetPoint" />
            <Array as="points" />
          </mxGeometry>
        </mxCell>
        <mxCell id="uojdir2LQ5QKRmrIcmHO-55" value="&lt;b&gt;1&lt;/b&gt;" style="ellipse;whiteSpace=wrap;html=1;aspect=fixed;fontSize=36;fontColor=#004C99;strokeColor=#000066;strokeWidth=3;fillColor=default;align=center;" vertex="1" parent="1">
          <mxGeometry x="-530" y="-615.5" width="60" height="60" as="geometry" />
        </mxCell>
        <mxCell id="uojdir2LQ5QKRmrIcmHO-63" value="" style="endArrow=none;html=1;rounded=0;fontSize=24;edgeStyle=orthogonalEdgeStyle;strokeWidth=3;startArrow=none;startFill=0;endFill=1;exitX=0.3;exitY=0;exitDx=0;exitDy=0;exitPerimeter=0;" edge="1" parent="1" source="uojdir2LQ5QKRmrIcmHO-1">
          <mxGeometry width="50" height="50" relative="1" as="geometry">
            <mxPoint x="-500" y="-510" as="sourcePoint" />
            <mxPoint x="-500" y="-550" as="targetPoint" />
            <Array as="points">
              <mxPoint x="-500" y="-530" />
              <mxPoint x="-500" y="-530" />
            </Array>
          </mxGeometry>
        </mxCell>
        <mxCell id="uojdir2LQ5QKRmrIcmHO-56" value="&lt;font color=&quot;#FF9933&quot;&gt;&lt;b&gt;2&lt;/b&gt;&lt;/font&gt;" style="ellipse;whiteSpace=wrap;html=1;aspect=fixed;fontSize=36;fontColor=#004C99;strokeColor=#FF8000;strokeWidth=3;fillColor=default;align=center;" vertex="1" parent="1">
          <mxGeometry x="-370" y="-540" width="60" height="60" as="geometry" />
        </mxCell>
        <mxCell id="uojdir2LQ5QKRmrIcmHO-64" value="" style="edgeStyle=orthogonalEdgeStyle;rounded=0;orthogonalLoop=1;jettySize=auto;html=1;fontSize=36;fontColor=#003366;startArrow=classicThin;startFill=0;endArrow=none;endFill=1;strokeWidth=3;strokeColor=#FF8000;" edge="1" parent="1" source="uojdir2LQ5QKRmrIcmHO-50" target="uojdir2LQ5QKRmrIcmHO-56">
          <mxGeometry relative="1" as="geometry">
            <mxPoint x="-187.9000000000001" y="-457.82000000000016" as="sourcePoint" />
            <mxPoint x="-434.4166666666665" y="-630" as="targetPoint" />
            <Array as="points">
              <mxPoint x="-220" y="-440" />
              <mxPoint x="-220" y="-440" />
            </Array>
          </mxGeometry>
        </mxCell>
        <mxCell id="uojdir2LQ5QKRmrIcmHO-67" value="&lt;b&gt;5&lt;/b&gt;" style="ellipse;whiteSpace=wrap;html=1;aspect=fixed;fontSize=36;fontColor=#004C99;strokeColor=#000066;strokeWidth=3;fillColor=default;align=center;" vertex="1" parent="1">
          <mxGeometry x="395" y="-1000" width="60" height="60" as="geometry" />
        </mxCell>
        <mxCell id="uojdir2LQ5QKRmrIcmHO-68" value="" style="edgeStyle=orthogonalEdgeStyle;rounded=0;orthogonalLoop=1;jettySize=auto;html=1;fontSize=36;fontColor=#FF9933;startArrow=classicThin;startFill=0;endArrow=none;endFill=1;strokeColor=#000000;strokeWidth=3;entryX=0.5;entryY=0;entryDx=0;entryDy=0;" edge="1" parent="1" source="uojdir2LQ5QKRmrIcmHO-8" target="uojdir2LQ5QKRmrIcmHO-67">
          <mxGeometry relative="1" as="geometry">
            <mxPoint x="180" y="-1050" as="sourcePoint" />
            <mxPoint x="425.3333333333335" y="-756" as="targetPoint" />
          </mxGeometry>
        </mxCell>
        <mxCell id="uojdir2LQ5QKRmrIcmHO-70" value="" style="points=[];aspect=fixed;html=1;align=center;shadow=0;dashed=0;image;image=img/lib/allied_telesis/computer_and_terminals/Smartphone.svg;sketch=0;fontSize=36;fontColor=#FF9933;strokeColor=#FF8000;strokeWidth=3;fillColor=#FFB366;" vertex="1" parent="1">
          <mxGeometry x="490" y="-451" width="87.08" height="190" as="geometry" />
        </mxCell>
        <mxCell id="uojdir2LQ5QKRmrIcmHO-71" value="" style="points=[];aspect=fixed;html=1;align=center;shadow=0;dashed=0;image;image=img/lib/allied_telesis/computer_and_terminals/Laptop.svg;sketch=0;fontSize=36;fontColor=#FF9933;strokeColor=#FF8000;strokeWidth=3;fillColor=#FFB366;" vertex="1" parent="1">
          <mxGeometry x="200" y="-471" width="207.04" height="210" as="geometry" />
        </mxCell>
        <mxCell id="uojdir2LQ5QKRmrIcmHO-72" value="" style="html=1;verticalLabelPosition=bottom;align=center;labelBackgroundColor=#ffffff;verticalAlign=top;strokeWidth=2;strokeColor=none;shadow=0;dashed=0;shape=mxgraph.ios7.icons.wifi;pointerEvents=1;sketch=0;fontSize=36;fontColor=#FF9933;fillColor=#003366;" vertex="1" parent="1">
          <mxGeometry x="337.5" y="-640" width="180" height="162" as="geometry" />
        </mxCell>
        <mxCell id="uojdir2LQ5QKRmrIcmHO-75" value="&lt;b&gt;Client Devices&lt;/b&gt;" style="text;html=1;align=center;verticalAlign=middle;resizable=0;points=[];autosize=1;strokeColor=none;fillColor=none;fontSize=36;fontColor=#004C99;" vertex="1" parent="1">
          <mxGeometry x="282.5" y="-240" width="260" height="50" as="geometry" />
        </mxCell>
        <mxCell id="uojdir2LQ5QKRmrIcmHO-76" value="" style="group" vertex="1" connectable="0" parent="1">
          <mxGeometry x="220" y="-851.5" width="415" height="200" as="geometry" />
        </mxCell>
        <mxCell id="uojdir2LQ5QKRmrIcmHO-65" value="" style="shape=image;verticalLabelPosition=bottom;labelBackgroundColor=#ffffff;verticalAlign=top;aspect=fixed;imageAspect=0;image=https://demo.cloudastructure.net/images/logos/cloudastructure-logo.svg;" vertex="1" parent="uojdir2LQ5QKRmrIcmHO-76">
          <mxGeometry y="31.5" width="247.27" height="136" as="geometry" />
        </mxCell>
        <mxCell id="uojdir2LQ5QKRmrIcmHO-69" value="" style="aspect=fixed;perimeter=ellipsePerimeter;html=1;align=center;shadow=0;dashed=0;spacingTop=3;image;image=img/lib/active_directory/web_server.svg;sketch=0;fontSize=36;fontColor=#FF9933;strokeColor=#FF8000;strokeWidth=3;fillColor=#FFB366;" vertex="1" parent="uojdir2LQ5QKRmrIcmHO-76">
          <mxGeometry x="255" width="160" height="200" as="geometry" />
        </mxCell>
        <mxCell id="uojdir2LQ5QKRmrIcmHO-77" value="&lt;b&gt;6&lt;/b&gt;" style="ellipse;whiteSpace=wrap;html=1;aspect=fixed;fontSize=36;fontColor=#004C99;strokeColor=#000066;strokeWidth=3;fillColor=default;align=center;" vertex="1" parent="1">
          <mxGeometry x="397.5" y="-600" width="60" height="60" as="geometry" />
        </mxCell>
      </root>
    </mxGraphModel>
  </diagram>
</mxfile>
